<svg width="553" height="182" viewBox="0 0 553 182" fill="none" xmlns="http://www.w3.org/2000/svg">
<path d="M15.9071 67.8625V59.9126H39.7678V67.8625H47.7214V75.8124H55.675V67.8625H63.6286V59.9126H79.5357V67.8625H87.4893V83.7623H95.4428V115.562H103.396V147.362H95.4428V155.311H79.5357V147.362H71.5821V107.612H63.6286V115.562H47.7214V107.612H39.7678V99.6621H31.8143V123.512H39.7678V147.362H31.8143V155.311H7.95357V147.362H0V99.6621H7.95357V67.8625H15.9071Z" fill="white"/>
<path d="M119.304 75.8124V59.9126H143.164V67.8625H151.118V91.7122H143.164V115.562H151.118V123.512H159.071V115.562H167.025V99.6621H159.071V75.8124H167.025V67.8625H182.932V75.8124H190.886V91.7122H198.839V131.462H190.886V147.362H182.932V155.311H127.257V147.362H119.304V131.462H111.35V75.8124H119.304Z" fill="white"/>
<path d="M222.7 67.8625V59.9126H270.421V67.8625H278.375V83.7623H270.421V91.7122H246.561V99.6621H270.421V115.562H262.468V123.512H238.607V147.362H230.654V155.311H214.746V147.362H206.793V91.7122H214.746V67.8625H222.7Z" fill="white"/>
<path d="M294.289 67.8625V59.9126H342.011V67.8625H349.964V83.7623H342.011V91.7122H318.15V99.6621H342.011V115.562H334.057V123.512H310.197V147.362H302.243V155.311H286.336V147.362H278.382V91.7122H286.336V67.8625H294.289Z" fill="white"/>
<path d="M424.273 131.964L417.917 125.612L412.362 131.165L418.717 137.517L424.273 131.964Z" fill="#FFF200"/>
<path d="M417.919 125.615L411.563 119.263L406.008 124.816L412.363 131.168L417.919 125.615Z" fill="#FFF200"/>
<path d="M429.828 126.411L423.473 120.059L417.917 125.612L424.273 131.964L429.828 126.411Z" fill="#FFF200"/>
<path d="M423.467 120.062L417.112 113.71L411.556 119.263L417.911 125.615L423.467 120.062Z" fill="#FFF200"/>
<path d="M435.376 120.861L429.021 114.509L423.465 120.062L429.821 126.414L435.376 120.861Z" fill="#FFF200"/>
<path d="M429.022 114.512L422.667 108.16L417.112 113.713L423.467 120.065L429.022 114.512Z" fill="#FFF200"/>
<path d="M440.932 115.308L434.577 108.955L429.021 114.509L435.376 120.861L440.932 115.308Z" fill="#FFF200"/>
<path d="M434.578 108.959L428.223 102.606L422.667 108.16L429.022 114.512L434.578 108.959Z" fill="#FFF200"/>
<path d="M446.488 109.758L440.132 103.405L434.577 108.959L440.932 115.311L446.488 109.758Z" fill="#FFF200"/>
<path d="M440.134 103.409L433.779 97.0564L428.223 102.609L434.578 108.962L440.134 103.409Z" fill="#FFF200"/>
<path d="M474.259 81.9986L467.903 75.6462L462.348 81.1993L468.703 87.5517L474.259 81.9986Z" fill="white"/>
<path d="M467.905 75.6495L461.549 69.2972L455.994 74.8502L462.349 81.2026L467.905 75.6495Z" fill="white"/>
<path d="M479.814 76.4486L473.459 70.0962L467.903 75.6493L474.259 82.0016L479.814 76.4486Z" fill="white"/>
<path d="M473.453 70.0995L467.098 63.7471L461.542 69.3002L467.897 75.6526L473.453 70.0995Z" fill="white"/>
<path d="M486.967 94.7072L480.611 88.3548L475.056 93.9079L481.411 100.26L486.967 94.7072Z" fill="white"/>
<path d="M480.613 88.3476L474.257 81.9953L468.702 87.5483L475.057 93.9007L480.613 88.3476Z" fill="white"/>
<path d="M492.522 89.1541L486.167 82.8017L480.611 88.3548L486.967 94.7072L492.522 89.1541Z" fill="white"/>
<path d="M498.078 83.6041L491.723 77.2517L486.167 82.8048L492.522 89.1572L498.078 83.6041Z" fill="white"/>
<path d="M498.876 95.5032L492.521 89.1508L486.965 94.7038L493.32 101.056L498.876 95.5032Z" fill="white"/>
<path d="M505.23 101.852L498.875 95.4999L493.319 101.053L499.674 107.405L505.23 101.852Z" fill="white"/>
<path d="M504.432 89.9532L498.076 83.6008L492.521 89.1539L498.876 95.5062L504.432 89.9532Z" fill="white"/>
<path d="M510.786 96.3097L504.43 89.9573L498.875 95.5103L505.23 101.863L510.786 96.3097Z" fill="white"/>
<path d="M509.987 84.4001L503.632 78.0477L498.076 83.6008L504.432 89.9532L509.987 84.4001Z" fill="white"/>
<path d="M516.341 90.7491L509.986 84.3968L504.43 89.9498L510.786 96.3022L516.341 90.7491Z" fill="white"/>
<path d="M522.695 97.1087L516.34 90.7563L510.784 96.3094L517.14 102.662L522.695 97.1087Z" fill="white"/>
<path d="M521.897 85.2066L515.542 78.8542L509.986 84.4072L516.341 90.7596L521.897 85.2066Z" fill="white"/>
<path d="M517.14 102.659L510.784 96.3063L505.229 101.859L511.584 108.212L517.14 102.659Z" fill="white"/>
<path d="M523.494 109.008L517.138 102.655L511.583 108.208L517.938 114.561L523.494 109.008Z" fill="white"/>
<path d="M486.168 82.7976L479.813 76.4453L474.257 81.9983L480.613 88.3507L486.168 82.7976Z" fill="white"/>
<path d="M467.099 63.74L460.744 57.3876L455.188 62.9407L461.543 69.293L467.099 63.74Z" fill="white"/>
<path d="M460.745 57.3909L454.39 51.0385L448.834 56.5916L455.189 62.944L460.745 57.3909Z" fill="white"/>
<path d="M472.655 58.1899L466.299 51.8376L460.744 57.3906L467.099 63.743L472.655 58.1899Z" fill="white"/>
<path d="M466.301 51.8409L459.945 45.4885L454.39 51.0416L460.745 57.394L466.301 51.8409Z" fill="white"/>
<path d="M459.947 45.4918L453.592 39.1395L448.036 44.6925L454.391 51.0449L459.947 45.4918Z" fill="white"/>
<path d="M471.856 46.2878L465.501 39.9354L459.945 45.4885L466.301 51.8409L471.856 46.2878Z" fill="white"/>
<path d="M483.766 47.0868L477.411 40.7345L471.855 46.2875L478.21 52.6399L483.766 47.0868Z" fill="white"/>
<path d="M484.564 58.9964L478.209 52.6441L472.653 58.1971L479.009 64.5495L484.564 58.9964Z" fill="white"/>
<path d="M490.918 65.3455L484.563 58.9931L479.007 64.5462L485.363 70.8985L490.918 65.3455Z" fill="white"/>
<path d="M490.12 53.4434L483.765 47.091L478.209 52.6441L484.564 58.9964L490.12 53.4434Z" fill="white"/>
<path d="M496.474 59.7924L490.119 53.44L484.563 58.9931L490.918 65.3455L496.474 59.7924Z" fill="white"/>
<path d="M497.272 71.6945L490.917 65.3422L485.361 70.8952L491.717 77.2476L497.272 71.6945Z" fill="white"/>
<path d="M502.828 66.1414L496.473 59.7891L490.917 65.3422L497.272 71.6945L502.828 66.1414Z" fill="white"/>
<path d="M509.182 72.501L502.826 66.1487L497.271 71.7017L503.626 78.0541L509.182 72.501Z" fill="white"/>
<path d="M514.737 66.9479L508.382 60.5955L502.826 66.1487L509.182 72.501L514.737 66.9479Z" fill="white"/>
<path d="M508.384 60.5915L502.028 54.2391L496.473 59.7921L502.828 66.1445L508.384 60.5915Z" fill="white"/>
<path d="M513.939 55.0383L507.584 48.686L502.028 54.2391L508.384 60.5915L513.939 55.0383Z" fill="white"/>
<path d="M513.133 43.1393L506.778 36.7869L501.223 42.34L507.578 48.6923L513.133 43.1393Z" fill="white"/>
<path d="M502.03 54.2424L495.674 47.89L490.119 53.4431L496.474 59.7954L502.03 54.2424Z" fill="white"/>
<path d="M443.334 151.019L436.979 144.666L431.423 150.219L437.779 156.572L443.334 151.019Z" fill="#FFF200"/>
<path d="M436.98 144.67L430.625 138.317L425.069 143.87L431.425 150.223L436.98 144.67Z" fill="#FFF200"/>
<path d="M448.89 145.469L442.535 139.116L436.979 144.669L443.334 151.022L448.89 145.469Z" fill="#FFF200"/>
<path d="M442.536 139.12L436.181 132.767L430.625 138.32L436.98 144.673L442.536 139.12Z" fill="#FFF200"/>
<path d="M454.446 139.916L448.09 133.563L442.535 139.116L448.89 145.469L454.446 139.916Z" fill="#FFF200"/>
<path d="M448.092 133.566L441.736 127.214L436.181 132.767L442.536 139.12L448.092 133.566Z" fill="#FFF200"/>
<path d="M460.001 134.366L453.646 128.013L448.09 133.566L454.446 139.919L460.001 134.366Z" fill="#FFF200"/>
<path d="M465.55 128.812L459.194 122.46L453.639 128.013L459.994 134.366L465.55 128.812Z" fill="#FFF200"/>
<path d="M453.64 128.016L447.285 121.664L441.729 127.217L448.084 133.57L453.64 128.016Z" fill="#FFF200"/>
<path d="M471.105 123.262L464.75 116.91L459.194 122.463L465.55 128.816L471.105 123.262Z" fill="#FFF200"/>
<path d="M477.459 129.619L471.104 123.267L465.548 128.82L471.904 135.172L477.459 129.619Z" fill="#FFF200"/>
<path d="M478.265 141.521L471.91 135.169L466.354 140.722L472.709 147.074L478.265 141.521Z" fill="#FFF200"/>
<path d="M484.619 147.87L478.263 141.518L472.708 147.071L479.063 153.423L484.619 147.87Z" fill="#FFF200"/>
<path d="M479.063 153.42L472.708 147.068L467.152 152.621L473.507 158.973L479.063 153.42Z" fill="#FFF200"/>
<path d="M472.709 147.071L466.354 140.719L460.798 146.272L467.154 152.624L472.709 147.071Z" fill="#FFF200"/>
<path d="M489.369 130.418L483.013 124.066L477.458 129.619L483.813 135.971L489.369 130.418Z" fill="#FFF200"/>
<path d="M495.723 136.767L489.367 130.415L483.812 135.968L490.167 142.32L495.723 136.767Z" fill="#FFF200"/>
<path d="M490.174 142.317L483.819 135.965L478.263 141.518L484.619 147.87L490.174 142.317Z" fill="#FFF200"/>
<path d="M490.973 154.227L484.617 147.874L479.062 153.427L485.417 159.78L490.973 154.227Z" fill="#FFF200"/>
<path d="M496.523 148.671L490.168 142.319L484.612 147.872L490.967 154.224L496.523 148.671Z" fill="#FFF200"/>
<path d="M502.084 143.124L495.729 136.771L490.173 142.324L496.528 148.677L502.084 143.124Z" fill="#FFF200"/>
<path d="M501.278 131.214L494.923 124.862L489.367 130.415L495.723 136.767L501.278 131.214Z" fill="#FFF200"/>
<path d="M507.632 137.563L501.277 131.211L495.721 136.764L502.077 143.116L507.632 137.563Z" fill="#FFF200"/>
<path d="M513.994 143.923L507.638 137.57L502.083 143.123L508.438 149.476L513.994 143.923Z" fill="#FFF200"/>
<path d="M519.542 138.369L513.187 132.017L507.631 137.57L513.986 143.923L519.542 138.369Z" fill="#FFF200"/>
<path d="M483.82 135.968L477.465 129.616L471.91 135.169L478.265 141.521L483.82 135.968Z" fill="#FFF200"/>
<path d="M467.154 152.624L460.798 146.272L455.243 151.825L461.598 158.177L467.154 152.624Z" fill="#FFF200"/>
<path d="M461.598 158.174L455.242 151.822L449.687 157.375L456.042 163.727L461.598 158.174Z" fill="#FFF200"/>
<path d="M473.507 158.973L467.152 152.621L461.596 158.174L467.952 164.526L473.507 158.973Z" fill="#FFF200"/>
<path d="M459.196 122.463L452.84 116.111L447.285 121.664L453.64 128.016L459.196 122.463Z" fill="#FFF200"/>
<path d="M464.751 116.913L458.396 110.561L452.84 116.114L459.196 122.466L464.751 116.913Z" fill="#FFF200"/>
<path d="M452.043 104.205L445.688 97.8524L440.132 103.405L446.488 109.758L452.043 104.205Z" fill="#FFF200"/>
<path d="M445.682 97.8557L439.327 91.5033L433.771 97.0564L440.126 103.409L445.682 97.8557Z" fill="#FFF200"/>
<path d="M439.328 91.4992L432.973 85.1469L427.417 90.6999L433.772 97.0523L439.328 91.4992Z" fill="#FFF200"/>
<path d="M487.772 106.606L481.417 100.254L475.861 105.807L482.217 112.159L487.772 106.606Z" fill="white"/>
<path d="M494.126 112.955L487.771 106.603L482.215 112.156L488.57 118.508L494.126 112.955Z" fill="white"/>
<path d="M500.48 119.315L494.125 112.963L488.569 118.516L494.924 124.868L500.48 119.315Z" fill="white"/>
<path d="M506.036 113.762L499.68 107.409L494.125 112.963L500.48 119.315L506.036 113.762Z" fill="white"/>
<path d="M512.39 120.111L506.034 113.758L500.479 119.312L506.834 125.664L512.39 120.111Z" fill="white"/>
<path d="M518.744 126.46L512.388 120.108L506.833 125.661L513.188 132.013L518.744 126.46Z" fill="white"/>
<path d="M524.299 120.917L517.944 114.565L512.388 120.118L518.744 126.47L524.299 120.917Z" fill="white"/>
<path d="M482.217 112.159L475.861 105.807L470.306 111.36L476.661 117.712L482.217 112.159Z" fill="white"/>
<path d="M475.863 105.81L469.507 99.4579L463.952 105.011L470.307 111.363L475.863 105.81Z" fill="white"/>
<path d="M469.501 99.4507L463.146 93.0984L457.59 98.6514L463.946 105.004L469.501 99.4507Z" fill="white"/>
<path d="M463.147 93.1017L456.792 86.7493L451.236 92.3024L457.592 98.6548L463.147 93.1017Z" fill="white"/>
<path d="M456.793 86.7526L450.438 80.4002L444.882 85.9533L451.238 92.3057L456.793 86.7526Z" fill="white"/>
<path d="M450.439 80.3961L444.084 74.0437L438.529 79.5968L444.884 85.9492L450.439 80.3961Z" fill="white"/>
<path d="M455.995 74.843L449.64 68.4907L444.084 74.0437L450.439 80.3961L455.995 74.843Z" fill="white"/>
<path d="M449.641 68.494L443.286 62.1416L437.73 67.6947L444.086 74.0471L449.641 68.494Z" fill="white"/>
<path d="M443.28 62.1449L436.925 55.7926L431.369 61.3456L437.724 67.698L443.28 62.1449Z" fill="white"/>
<path d="M448.836 56.5949L442.48 50.2425L436.925 55.7956L443.28 62.148L448.836 56.5949Z" fill="white"/>
<path d="M442.482 50.2354L436.126 43.883L430.571 49.436L436.926 55.7884L442.482 50.2354Z" fill="white"/>
<path d="M430.572 49.4394L424.217 43.087L418.661 48.6401L425.016 54.9925L430.572 49.4394Z" fill="#FFF200"/>
<path d="M425.016 54.9894L418.661 48.637L413.105 54.1901L419.461 60.5425L425.016 54.9894Z" fill="#FFF200"/>
<path d="M425.822 66.8915L419.467 60.5392L413.911 66.0923L420.266 72.4446L425.822 66.8915Z" fill="#FFF200"/>
<path d="M420.266 72.4416L413.911 66.0892L408.355 71.6422L414.711 77.9946L420.266 72.4416Z" fill="#FFF200"/>
<path d="M421.065 84.3511L414.709 77.9988L409.154 83.5518L415.509 89.9042L421.065 84.3511Z" fill="#FFF200"/>
<path d="M415.509 89.9042L409.154 83.5518L403.598 89.1049L409.953 95.4573L415.509 89.9042Z" fill="#FFF200"/>
<path d="M409.961 95.4542L403.605 89.1019L398.05 94.6549L404.405 101.007L409.961 95.4542Z" fill="#FFF200"/>
<path d="M410.759 107.356L404.404 101.004L398.848 106.557L405.203 112.909L410.759 107.356Z" fill="#FFF200"/>
<path d="M448.037 44.6853L441.682 38.333L436.126 43.8861L442.482 50.2384L448.037 44.6853Z" fill="white"/>
<path d="M458.206 6.35238L451.851 0L446.295 5.55307L452.651 11.9055L458.206 6.35238Z" fill="white"/>
<path d="M385.341 70.8517L378.986 64.4993L373.43 70.0524L379.786 76.4048L385.341 70.8517Z" fill="white"/>
<path d="M391.435 114.447L385.08 108.095L379.524 113.648L385.88 120L391.435 114.447Z" fill="white"/>
<path d="M515.507 176.449L509.152 170.096L503.596 175.65L509.951 182.002L515.507 176.449Z" fill="white"/>
<path d="M405.359 35.3388L399.004 28.9865L393.449 34.5395L399.804 40.8919L405.359 35.3388Z" fill="white"/>
<path d="M553.003 123.989L546.648 117.637L541.093 123.19L547.448 129.542L553.003 123.989Z" fill="white"/>
<path d="M545.716 86.8015L539.361 80.4492L533.805 86.0022L540.161 92.3546L545.716 86.8015Z" fill="white"/>
<path d="M445.613 174.154L439.258 167.801L433.702 173.354L440.057 179.707L445.613 174.154Z" fill="white"/>
</svg>
